<?xml version="1.0" encoding="utf-8"?>
<!-- Generator: Adobe Illustrator 25.1.0, SVG Export Plug-In . SVG Version: 6.00 Build 0)  -->
<svg version="1.1" id="Layer_1" xmlns="http://www.w3.org/2000/svg" xmlns:xlink="http://www.w3.org/1999/xlink" x="0px" y="0px"
	 viewBox="0 0 112.7 27.7" style="enable-background:new 0 0 112.7 27.7;" xml:space="preserve">
<style type="text/css">
	.st0{fill:url(#SVGID_1_);stroke:#231F20;stroke-width:1.0153;stroke-miterlimit:10;}
	.st1{fill:#231F20;}
	.st2{fill:none;stroke:#000000;stroke-width:2;stroke-miterlimit:10;}
	.st3{fill:none;stroke:#231F20;stroke-width:3;stroke-miterlimit:10;}
	.st4{fill:none;stroke:#000000;stroke-width:0.3364;stroke-miterlimit:10;}
	.st5{fill:#FFFFFF;}
	.st6{opacity:0;fill:#FFFFFF;}
</style>
<g>
	<g>
		<g>
			<g>
				<defs>
					<circle id="SVGID_2_" cx="-1602.4" cy="-156.3" r="151.1"/>
				</defs>
				<clipPath id="SVGID_1_">
					<use xlink:href="#SVGID_2_"  style="overflow:visible;"/>
				</clipPath>
			</g>
		</g>
	</g>
</g>
<path class="st4" d="M110.4,27.5H2.3c-1.2,0-2.1-0.9-2.1-2.1V2.3c0-1.2,0.9-2.1,2.1-2.1l108.2,0c1.2,0,2.1,0.9,2.1,2.1v23.1
	C112.5,26.6,111.6,27.5,110.4,27.5z"/>
<g>
	<g>
		<path d="M11.2,8.6c0-1.6,1.2-2.7,2.7-2.7c1,0,1.9,0.5,2.3,1.3l-0.9,0.6c-0.3-0.6-0.8-0.9-1.5-0.9c-1,0-1.8,0.8-1.8,1.8
			c0,1,0.7,1.7,1.7,1.7c0.7,0,1.3-0.4,1.5-1l0.9,0.5c-0.5,0.9-1.4,1.5-2.4,1.5C12.3,11.4,11.2,10.2,11.2,8.6z"/>
		<path d="M16.7,5.9h1v5.4h-1V5.9z"/>
		<path d="M18.8,5.4c0.4,0,0.6,0.2,0.6,0.6c0,0.4-0.2,0.6-0.6,0.6c-0.4,0-0.6-0.2-0.6-0.6C18.2,5.6,18.4,5.4,18.8,5.4z M18.3,7h1
			v4.3h-1V7z"/>
		<path d="M19.7,9.2c0-1.3,1-2.2,2.2-2.2c1,0,1.7,0.5,2,1.3l-0.9,0.4c-0.2-0.5-0.6-0.8-1.1-0.8c-0.7,0-1.3,0.6-1.3,1.3
			c0,0.7,0.5,1.3,1.3,1.3c0.5,0,1-0.3,1.2-0.8L24,10c-0.3,0.8-1.1,1.3-2.1,1.3C20.7,11.4,19.7,10.4,19.7,9.2z"/>
		<path d="M24.4,5.9h1v3.2L27.2,7h1.2l-1.7,1.8l1.7,2.4h-1.1l-1.3-1.8l-0.7,0.8v1.1h-1V5.9z"/>
		<path d="M30.4,7h0.7V6.4l1-0.7V7H33v0.9h-0.9v1.6c0,0.7,0.1,0.9,0.9,0.9v0.9h-0.1c-1.3,0-1.7-0.4-1.7-1.8V7.9h-0.7V7z"/>
		<path d="M33.5,5.9h1v1.6c0.3-0.4,0.7-0.6,1.3-0.6c1.1,0,1.7,0.7,1.7,1.8v2.5h-1V8.9c0-0.7-0.3-1.1-1-1.1c-0.6,0-1,0.4-1,1.2v2.3
			h-1V5.9z"/>
		<path d="M37.9,9.2c0-1.3,1-2.2,2.2-2.2c1.3,0,2.2,0.9,2.2,2.2v0.4h-3.5c0.1,0.6,0.6,1,1.3,1c0.5,0,1-0.3,1.2-0.8l0.8,0.5
			c-0.4,0.7-1,1.2-2,1.2C38.8,11.4,37.9,10.4,37.9,9.2z M38.9,8.7h2.4c-0.1-0.6-0.6-0.9-1.2-0.9C39.5,7.8,39,8.2,38.9,8.7z"/>
		<path d="M45,5.4c0.4,0,0.6,0.2,0.6,0.6c0,0.4-0.2,0.6-0.6,0.6c-0.4,0-0.6-0.2-0.6-0.6C44.4,5.6,44.6,5.4,45,5.4z M44.5,7h1v4.3h-1
			V7z"/>
		<path d="M45.9,9.2c0-1.3,1-2.2,2.2-2.2c1,0,1.7,0.5,2,1.3l-0.9,0.4c-0.2-0.5-0.6-0.8-1.1-0.8c-0.7,0-1.3,0.6-1.3,1.3
			c0,0.7,0.5,1.3,1.3,1.3c0.5,0,1-0.3,1.2-0.8l0.9,0.4c-0.3,0.8-1.1,1.3-2.1,1.3C46.9,11.4,45.9,10.4,45.9,9.2z"/>
		<path d="M50.4,9.2c0-1.2,1-2.2,2.2-2.2c1.2,0,2.2,1,2.2,2.2c0,1.2-1,2.2-2.2,2.2C51.4,11.4,50.4,10.4,50.4,9.2z M53.9,9.2
			c0-0.7-0.5-1.3-1.2-1.3c-0.7,0-1.2,0.6-1.2,1.3c0,0.7,0.5,1.3,1.2,1.3C53.3,10.5,53.9,9.9,53.9,9.2z"/>
		<path d="M55.3,7h1v0.5c0.3-0.4,0.7-0.6,1.3-0.6c1.1,0,1.7,0.7,1.7,1.8v2.5h-1V8.9c0-0.7-0.3-1.1-1-1.1c-0.6,0-1,0.4-1,1.2v2.3h-1
			V7z"/>
		<path d="M61.4,7h0.7V6.4l1-0.7V7H64v0.9h-0.9v1.6c0,0.7,0.1,0.9,0.9,0.9v0.9h-0.1c-1.3,0-1.7-0.4-1.7-1.8V7.9h-0.7V7z"/>
		<path d="M64.2,9.2c0-1.2,1-2.2,2.2-2.2c1.2,0,2.2,1,2.2,2.2c0,1.2-1,2.2-2.2,2.2C65.2,11.4,64.2,10.4,64.2,9.2z M67.7,9.2
			c0-0.7-0.5-1.3-1.2-1.3c-0.7,0-1.2,0.6-1.2,1.3c0,0.7,0.5,1.3,1.2,1.3C67.1,10.5,67.7,9.9,67.7,9.2z"/>
		<path d="M70.7,9.2c0-1.4,1-2.2,2.1-2.2c0.6,0,1.1,0.2,1.4,0.6V5.9h1v5.4h-1v-0.6c-0.3,0.4-0.8,0.6-1.4,0.6
			C71.8,11.4,70.7,10.6,70.7,9.2z M74.3,9.2c0-0.7-0.5-1.3-1.3-1.3c-0.7,0-1.3,0.6-1.3,1.3c0,0.7,0.6,1.3,1.3,1.3
			C73.7,10.5,74.3,9.9,74.3,9.2z"/>
		<path d="M76.3,5.4c0.4,0,0.6,0.2,0.6,0.6c0,0.4-0.2,0.6-0.6,0.6c-0.4,0-0.6-0.2-0.6-0.6C75.7,5.6,75.9,5.4,76.3,5.4z M75.8,7h1
			v4.3h-1V7z"/>
		<path d="M77.1,10.4L78,9.9c0.2,0.4,0.6,0.6,1,0.6c0.5,0,0.7-0.2,0.7-0.5c0-0.3-0.5-0.4-1-0.5c-0.7-0.1-1.5-0.4-1.5-1.3
			c0-0.7,0.7-1.3,1.7-1.3c0.8,0,1.4,0.3,1.7,0.9l-0.8,0.4c-0.2-0.3-0.5-0.5-0.9-0.5c-0.5,0-0.7,0.2-0.7,0.5c0,0.3,0.3,0.4,1,0.5
			c0.7,0.1,1.5,0.4,1.5,1.3c0,0.6-0.5,1.4-1.8,1.4C78,11.4,77.4,11,77.1,10.4z"/>
		<path d="M81,9.2c0-1.3,1-2.2,2.2-2.2c1,0,1.7,0.5,2,1.3l-0.9,0.4c-0.2-0.5-0.6-0.8-1.1-0.8c-0.7,0-1.3,0.6-1.3,1.3
			c0,0.7,0.5,1.3,1.3,1.3c0.5,0,1-0.3,1.2-0.8l0.9,0.4c-0.3,0.8-1.1,1.3-2.1,1.3C82,11.4,81,10.4,81,9.2z"/>
		<path d="M85.5,9.2c0-1.2,1-2.2,2.2-2.2c1.2,0,2.2,1,2.2,2.2c0,1.2-1,2.2-2.2,2.2C86.5,11.4,85.5,10.4,85.5,9.2z M89,9.2
			c0-0.7-0.5-1.3-1.2-1.3c-0.7,0-1.2,0.6-1.2,1.3c0,0.7,0.5,1.3,1.2,1.3C88.4,10.5,89,9.9,89,9.2z"/>
		<path d="M89.8,7h1l1.1,3L93,7h1l-1.6,4.3h-1L89.8,7z"/>
		<path d="M93.9,9.2c0-1.3,1-2.2,2.2-2.2c1.3,0,2.2,0.9,2.2,2.2v0.4h-3.5c0.1,0.6,0.6,1,1.3,1c0.5,0,1-0.3,1.2-0.8l0.8,0.5
			c-0.4,0.7-1,1.2-2,1.2C94.9,11.4,93.9,10.4,93.9,9.2z M94.9,8.7h2.4c-0.1-0.6-0.6-0.9-1.2-0.9C95.6,7.8,95.1,8.2,94.9,8.7z"/>
		<path d="M98.8,7h1v0.6c0.2-0.4,0.6-0.6,1.1-0.6c0.3,0,0.6,0.1,0.8,0.2l-0.4,0.9C101.1,8,100.9,8,100.7,8c-0.6,0-0.9,0.3-0.9,1v2.3
			h-1V7z"/>
	</g>
	<g>
		<path d="M9.2,16.3H10v-0.7l1-0.7v1.3h0.9v0.9h-0.9v1.6c0,0.7,0.1,0.9,0.9,0.9v0.9h-0.1c-1.3,0-1.7-0.4-1.7-1.8v-1.6H9.2V16.3z"/>
		<path d="M12.3,15.2h1v1.6c0.3-0.4,0.7-0.6,1.3-0.6c1.1,0,1.7,0.7,1.7,1.8v2.5h-1v-2.4c0-0.7-0.3-1.1-1-1.1c-0.6,0-1,0.4-1,1.2v2.3
			h-1V15.2z"/>
		<path d="M16.7,18.5c0-1.2,1-2.2,2.2-2.2c1.3,0,2.2,0.9,2.2,2.2v0.4h-3.5c0.1,0.6,0.6,1,1.3,1c0.5,0,1-0.3,1.2-0.8l0.8,0.5
			c-0.4,0.7-1,1.2-2,1.2C17.6,20.7,16.7,19.7,16.7,18.5z M17.7,18h2.4c-0.1-0.6-0.6-0.9-1.2-0.9C18.3,17.1,17.8,17.5,17.7,18z"/>
		<path d="M23.3,15.2h1v5.4h-1V15.2z"/>
		<path d="M24.8,18.5c0-1.4,1-2.2,2.1-2.2c0.6,0,1.1,0.2,1.4,0.6v-0.5h1v4.3h-1V20c-0.3,0.4-0.8,0.6-1.4,0.6
			C25.8,20.7,24.8,19.9,24.8,18.5z M28.3,18.5c0-0.7-0.5-1.3-1.3-1.3c-0.7,0-1.3,0.6-1.3,1.3c0,0.7,0.6,1.3,1.3,1.3
			C27.7,19.8,28.3,19.2,28.3,18.5z"/>
		<path d="M29.6,16.3h0.7v-0.7l1-0.7v1.3h0.9v0.9h-0.9v1.6c0,0.7,0.1,0.9,0.9,0.9v0.9h-0.1c-1.3,0-1.7-0.4-1.7-1.8v-1.6h-0.7V16.3z"
			/>
		<path d="M32.4,18.5c0-1.2,1-2.2,2.2-2.2c1.3,0,2.2,0.9,2.2,2.2v0.4h-3.5c0.1,0.6,0.6,1,1.3,1c0.5,0,1-0.3,1.2-0.8l0.8,0.5
			c-0.4,0.7-1,1.2-2,1.2C33.3,20.7,32.4,19.7,32.4,18.5z M33.4,18h2.4c-0.1-0.6-0.6-0.9-1.2-0.9C34.1,17.1,33.6,17.5,33.4,18z"/>
		<path d="M37,19.7l0.9-0.4c0.2,0.4,0.6,0.6,1,0.6c0.5,0,0.7-0.2,0.7-0.5c0-0.3-0.5-0.4-1-0.5c-0.7-0.1-1.5-0.4-1.5-1.3
			c0-0.7,0.7-1.3,1.7-1.3c0.8,0,1.4,0.3,1.7,0.9l-0.8,0.4c-0.2-0.3-0.5-0.5-0.9-0.5c-0.5,0-0.7,0.2-0.7,0.5c0,0.3,0.3,0.4,1,0.5
			c0.7,0.1,1.5,0.4,1.5,1.3c0,0.6-0.5,1.4-1.8,1.4C38,20.7,37.3,20.3,37,19.7z"/>
		<path d="M40.8,16.3h0.7v-0.7l1-0.7v1.3h0.9v0.9h-0.9v1.6c0,0.7,0.1,0.9,0.9,0.9v0.9h-0.1c-1.3,0-1.7-0.4-1.7-1.8v-1.6h-0.7V16.3z"
			/>
		<path d="M45.6,17.9c0-1.5,1.1-2.7,2.7-2.7c1.1,0,2,0.6,2.4,1.4l-0.9,0.5c-0.3-0.6-0.8-0.9-1.5-0.9c-1,0-1.7,0.8-1.7,1.8
			c0,1,0.7,1.8,1.8,1.8c0.8,0,1.4-0.5,1.5-1.2h-1.7v-1H51V18c0,1.4-1,2.7-2.6,2.7C46.7,20.7,45.6,19.4,45.6,17.9z"/>
		<path d="M51.3,18.5c0-1.4,1-2.2,2.1-2.2c0.6,0,1.1,0.2,1.4,0.6v-0.5h1v4.3h-1V20c-0.3,0.4-0.8,0.6-1.4,0.6
			C52.4,20.7,51.3,19.9,51.3,18.5z M54.9,18.5c0-0.7-0.5-1.3-1.3-1.3c-0.7,0-1.3,0.6-1.3,1.3c0,0.7,0.6,1.3,1.3,1.3
			C54.3,19.8,54.9,19.2,54.9,18.5z"/>
		<path d="M56.4,15.2h1v5.4h-1V15.2z"/>
		<path d="M57.8,18.5c0-1.4,1-2.2,2.1-2.2c0.6,0,1.1,0.2,1.4,0.6v-0.5h1v4.3h-1V20c-0.3,0.4-0.8,0.6-1.4,0.6
			C58.9,20.7,57.8,19.9,57.8,18.5z M61.4,18.5c0-0.7-0.5-1.3-1.3-1.3c-0.7,0-1.3,0.6-1.3,1.3c0,0.7,0.6,1.3,1.3,1.3
			C60.8,19.8,61.4,19.2,61.4,18.5z"/>
		<path d="M64.1,18.4l-1.5-2.1h1.2l1,1.4l1-1.4h1.2l-1.5,2.1l1.6,2.2h-1.2l-1-1.4l-1,1.4h-1.2L64.1,18.4z"/>
		<path d="M68.8,20.4L67,16.3h1.1l1.2,2.9l1.1-2.9h1l-2.6,6.2h-1L68.8,20.4z"/>
		<path d="M73.3,19.7l0.9-0.7c0.3,0.5,0.7,0.7,1.2,0.7c0.5,0,0.8-0.3,0.8-0.7c0-0.5-0.5-0.6-1.1-0.8c-0.7-0.2-1.5-0.5-1.5-1.5
			c0-0.9,0.7-1.5,1.8-1.5c0.9,0,1.4,0.3,1.8,0.8l-0.8,0.6c-0.2-0.3-0.5-0.5-1-0.5c-0.5,0-0.7,0.3-0.7,0.6c0,0.4,0.5,0.6,1.1,0.8
			c0.7,0.2,1.5,0.6,1.5,1.6c0,0.8-0.7,1.7-1.8,1.7C74.4,20.7,73.8,20.3,73.3,19.7z"/>
		<path d="M77.7,19.7c0-0.9,0.7-1.5,1.4-1.9c0.5-0.4,1-0.7,1-1.1c0-0.4-0.3-0.6-0.7-0.6c-0.5,0-0.8,0.3-0.9,0.8l-0.9-0.4
			c0.3-0.7,0.9-1.2,1.8-1.2c1.1,0,1.7,0.7,1.7,1.5c0,0.8-0.7,1.3-1.3,1.7c-0.6,0.4-1.1,0.7-1.1,1.2h2.4v1h-3.4V19.7z"/>
		<path d="M81.3,19.9l0.9-0.6c0.2,0.3,0.5,0.5,0.8,0.5c0.5,0,0.8-0.3,0.8-0.7c0-0.4-0.4-0.7-0.9-0.7h-0.5v-0.9h0.5
			c0.6,0,0.8-0.3,0.8-0.7c0-0.4-0.3-0.6-0.8-0.6c-0.4,0-0.6,0.2-0.8,0.5l-0.8-0.4c0.3-0.6,0.9-0.9,1.6-0.9c1,0,1.7,0.6,1.7,1.5
			c0,0.5-0.2,0.9-0.6,1.1c0.4,0.3,0.7,0.7,0.7,1.2c0,0.9-0.6,1.6-1.8,1.6C82.4,20.7,81.8,20.5,81.3,19.9z"/>
		<path d="M87.1,18.8v-3.5h1v3.6c0,0.5,0.4,0.9,0.9,0.9c0.5,0,0.9-0.4,0.9-0.9v-3.6h1v3.5c0,1.3-0.8,1.9-1.9,1.9
			C87.9,20.7,87.1,20,87.1,18.8z"/>
		<path d="M91.5,15.2h1v5.4h-1V15.2z"/>
		<path d="M92.9,16.3h0.7v-0.7l1-0.7v1.3h0.9v0.9h-0.9v1.6c0,0.7,0.1,0.9,0.9,0.9v0.9h-0.1c-1.3,0-1.7-0.4-1.7-1.8v-1.6h-0.7V16.3z"
			/>
		<path d="M96,16.3h1V17c0.2-0.4,0.6-0.6,1.1-0.6c0.3,0,0.6,0.1,0.8,0.2l-0.4,0.9c-0.1-0.1-0.3-0.2-0.6-0.2c-0.6,0-0.9,0.3-0.9,1
			v2.3h-1V16.3z"/>
		<path d="M98.8,18.5c0-1.4,1-2.2,2.1-2.2c0.6,0,1.1,0.2,1.4,0.6v-0.5h1v4.3h-1V20c-0.3,0.4-0.8,0.6-1.4,0.6
			C99.9,20.7,98.8,19.9,98.8,18.5z M102.4,18.5c0-0.7-0.5-1.3-1.3-1.3c-0.7,0-1.3,0.6-1.3,1.3c0,0.7,0.6,1.3,1.3,1.3
			C101.8,19.8,102.4,19.2,102.4,18.5z"/>
	</g>
</g>
</svg>
