<?xml version="1.0" encoding="utf-8"?>
<!-- Generator: Adobe Illustrator 25.1.0, SVG Export Plug-In . SVG Version: 6.00 Build 0)  -->
<svg version="1.1" id="Layer_1" xmlns="http://www.w3.org/2000/svg" xmlns:xlink="http://www.w3.org/1999/xlink" x="0px" y="0px"
	 viewBox="0 0 88.7 19.2" style="enable-background:new 0 0 88.7 19.2;" xml:space="preserve">
<style type="text/css">
	.st0{fill:url(#SVGID_1_);stroke:#231F20;stroke-width:1.0153;stroke-miterlimit:10;}
	.st1{fill:#231F20;}
	.st2{fill:none;stroke:#000000;stroke-width:2;stroke-miterlimit:10;}
	.st3{fill:none;stroke:#231F20;stroke-width:3;stroke-miterlimit:10;}
	.st4{fill:#FFFFFF;}
	.st5{opacity:0;fill:#FFFFFF;}
</style>
<g>
	<g>
		<g>
			<g>
				<defs>
					<circle id="SVGID_2_" cx="-1614.4" cy="-160.5" r="151.1"/>
				</defs>
				<clipPath id="SVGID_1_">
					<use xlink:href="#SVGID_2_"  style="overflow:visible;"/>
				</clipPath>
			</g>
		</g>
	</g>
</g>
<g>
	<path class="st4" d="M85.8,19.2h-83c-1.6,0-2.9-1.3-2.9-2.9V2.9C0,1.3,1.3,0,2.9,0h83c1.6,0,2.9,1.3,2.9,2.9v13.5
		C88.7,17.9,87.4,19.2,85.8,19.2z"/>
	<g>
		<path class="st1" d="M4.5,6.2h2.3c0.4,0,0.7,0.1,1.1,0.2c0.3,0.1,0.6,0.3,0.8,0.5S9,7.4,9.2,7.7s0.2,0.6,0.2,1
			c0,0.4-0.1,0.7-0.2,1s-0.3,0.6-0.5,0.8c-0.2,0.2-0.5,0.4-0.8,0.5c-0.3,0.1-0.7,0.2-1.1,0.2H5.4v2.2H4.5V6.2z M5.4,7v3.2h1.3
			c0.3,0,0.5,0,0.7-0.1C7.6,10,7.8,9.9,7.9,9.8c0.1-0.1,0.3-0.3,0.3-0.5c0.1-0.2,0.1-0.4,0.1-0.6c0-0.2,0-0.4-0.1-0.6
			S8.1,7.6,7.9,7.5C7.8,7.3,7.6,7.2,7.4,7.2C7.2,7.1,7,7,6.7,7H5.4z"/>
		<path class="st1" d="M10.4,6.2h2.3c0.4,0,0.7,0.1,1,0.2s0.6,0.3,0.8,0.5s0.4,0.4,0.5,0.7c0.1,0.3,0.2,0.6,0.2,0.9
			c0,0.2,0,0.5-0.1,0.7c-0.1,0.2-0.2,0.4-0.3,0.6c-0.1,0.2-0.3,0.4-0.5,0.5s-0.4,0.3-0.6,0.4l1.6,2.7h-1.1l-1.4-2.5h-1.5v2.5h-0.9
			V6.2z M11.3,7v2.9h1.3c0.3,0,0.5,0,0.7-0.1c0.2-0.1,0.4-0.2,0.5-0.3C13.9,9.3,14,9.2,14.1,9c0.1-0.2,0.1-0.4,0.1-0.5
			c0-0.4-0.1-0.8-0.4-1C13.5,7.2,13.1,7,12.6,7H11.3z"/>
		<path class="st1" d="M16.2,6.2h4.3v0.9h-3.4v2.2h3.4v0.9h-3.4v2.2h3.4v0.9h-4.3V6.2z"/>
		<path class="st1" d="M21.4,10.4h3.6v0.8h-3.6V10.4z"/>
		<path class="st1" d="M29.5,13.3c-0.5,0-1-0.1-1.4-0.3c-0.4-0.2-0.8-0.4-1.2-0.8s-0.6-0.7-0.8-1.1c-0.2-0.4-0.3-0.9-0.3-1.4
			s0.1-1,0.3-1.4c0.2-0.4,0.5-0.8,0.8-1.1s0.7-0.6,1.2-0.8c0.4-0.2,0.9-0.3,1.4-0.3c0.5,0,1,0.1,1.4,0.3c0.4,0.2,0.8,0.4,1.2,0.8
			c0.3,0.3,0.6,0.7,0.8,1.1c0.2,0.4,0.3,0.9,0.3,1.4s-0.1,1-0.3,1.4c-0.2,0.4-0.5,0.8-0.8,1.1c-0.3,0.3-0.7,0.6-1.2,0.8
			C30.5,13.2,30,13.3,29.5,13.3z M29.5,12.4c0.4,0,0.7-0.1,1.1-0.2s0.6-0.3,0.9-0.6c0.2-0.2,0.4-0.5,0.6-0.8c0.1-0.3,0.2-0.7,0.2-1
			c0-0.4-0.1-0.7-0.2-1c-0.1-0.3-0.3-0.6-0.6-0.8c-0.2-0.2-0.5-0.4-0.9-0.6c-0.3-0.1-0.7-0.2-1.1-0.2c-0.4,0-0.7,0.1-1.1,0.2
			c-0.3,0.1-0.6,0.3-0.9,0.6c-0.2,0.2-0.4,0.5-0.6,0.8c-0.1,0.3-0.2,0.7-0.2,1c0,0.4,0.1,0.7,0.2,1c0.1,0.3,0.3,0.6,0.6,0.8
			c0.2,0.2,0.5,0.4,0.9,0.6C28.8,12.3,29.2,12.4,29.5,12.4z"/>
		<path class="st1" d="M34.2,6.2h2.3c0.4,0,0.7,0.1,1,0.2s0.6,0.3,0.8,0.5s0.4,0.4,0.5,0.7C38.9,7.8,39,8.1,39,8.5
			c0,0.2,0,0.5-0.1,0.7c-0.1,0.2-0.2,0.4-0.3,0.6c-0.1,0.2-0.3,0.4-0.5,0.5s-0.4,0.3-0.6,0.4l1.6,2.7H38l-1.4-2.5h-1.5v2.5h-0.9V6.2
			z M35.1,7v2.9h1.3c0.3,0,0.5,0,0.7-0.1c0.2-0.1,0.4-0.2,0.5-0.3c0.1-0.1,0.2-0.3,0.3-0.5C38,8.8,38,8.6,38,8.5
			c0-0.4-0.1-0.8-0.4-1C37.3,7.2,36.9,7,36.4,7H35.1z"/>
		<path class="st1" d="M40,6.2h2c0.6,0,1.1,0.1,1.5,0.3c0.5,0.2,0.9,0.4,1.2,0.8s0.6,0.7,0.8,1.1c0.2,0.4,0.3,0.9,0.3,1.4
			s-0.1,1-0.3,1.4c-0.2,0.4-0.4,0.8-0.8,1.1c-0.3,0.3-0.7,0.6-1.2,0.8s-0.9,0.3-1.5,0.3h-2V6.2z M40.9,7v5.4h1
			c0.4,0,0.8-0.1,1.2-0.2c0.3-0.1,0.6-0.3,0.9-0.6c0.3-0.2,0.4-0.5,0.6-0.9c0.1-0.3,0.2-0.7,0.2-1.1c0-0.4-0.1-0.7-0.2-1.1
			C44.4,8.3,44.3,8,44,7.8c-0.2-0.2-0.5-0.4-0.9-0.6C42.8,7.1,42.3,7,41.9,7H40.9z"/>
		<path class="st1" d="M46.7,6.2H51v0.9h-3.4v2.2H51v0.9h-3.4v2.2H51v0.9h-4.3V6.2z"/>
		<path class="st1" d="M52.1,6.2h2.3c0.4,0,0.7,0.1,1,0.2s0.6,0.3,0.8,0.5s0.4,0.4,0.5,0.7c0.1,0.3,0.2,0.6,0.2,0.9
			c0,0.2,0,0.5-0.1,0.7c-0.1,0.2-0.2,0.4-0.3,0.6c-0.1,0.2-0.3,0.4-0.5,0.5s-0.4,0.3-0.6,0.4l1.6,2.7h-1.1l-1.4-2.5H53v2.5h-0.9V6.2
			z M53,7v2.9h1.3c0.3,0,0.5,0,0.7-0.1c0.2-0.1,0.4-0.2,0.5-0.3c0.1-0.1,0.2-0.3,0.3-0.5c0.1-0.2,0.1-0.4,0.1-0.5
			c0-0.4-0.1-0.8-0.4-1C55.2,7.2,54.8,7,54.3,7H53z"/>
		<path class="st1" d="M60.3,6.2h1.1l3.9,5.6V6.2h0.9v7.2h-1l-3.9-5.7v5.7h-0.9V6.2z"/>
		<path class="st1" d="M70.9,13.3c-0.5,0-1-0.1-1.4-0.3c-0.4-0.2-0.8-0.4-1.2-0.8s-0.6-0.7-0.8-1.1c-0.2-0.4-0.3-0.9-0.3-1.4
			s0.1-1,0.3-1.4c0.2-0.4,0.5-0.8,0.8-1.1s0.7-0.6,1.2-0.8c0.4-0.2,0.9-0.3,1.4-0.3c0.5,0,1,0.1,1.4,0.3c0.4,0.2,0.8,0.4,1.2,0.8
			s0.6,0.7,0.8,1.1c0.2,0.4,0.3,0.9,0.3,1.4s-0.1,1-0.3,1.4c-0.2,0.4-0.5,0.8-0.8,1.1s-0.7,0.6-1.2,0.8
			C71.8,13.2,71.4,13.3,70.9,13.3z M70.9,12.4c0.4,0,0.7-0.1,1.1-0.2s0.6-0.3,0.9-0.6c0.2-0.2,0.4-0.5,0.6-0.8
			c0.1-0.3,0.2-0.7,0.2-1c0-0.4-0.1-0.7-0.2-1c-0.1-0.3-0.3-0.6-0.6-0.8c-0.2-0.2-0.5-0.4-0.9-0.6c-0.3-0.1-0.7-0.2-1.1-0.2
			c-0.4,0-0.7,0.1-1.1,0.2c-0.3,0.1-0.6,0.3-0.9,0.6c-0.2,0.2-0.4,0.5-0.6,0.8c-0.1,0.3-0.2,0.7-0.2,1c0,0.4,0.1,0.7,0.2,1
			c0.1,0.3,0.3,0.6,0.6,0.8c0.2,0.2,0.5,0.4,0.9,0.6C70.1,12.3,70.5,12.4,70.9,12.4z"/>
		<path class="st1" d="M74.8,6.2h1l1.6,5.7l1.8-5.7h0.9l1.8,5.7l1.6-5.7h1l-2.1,7.2h-1l-1.8-5.7l-1.8,5.7h-1L74.8,6.2z"/>
	</g>
</g>
</svg>
